<svg xmlns="http://www.w3.org/2000/svg" version="1.1" xmlns:xlink="http://www.w3.org/1999/xlink" xmlns:svgjs="http://svgjs.dev/svgjs" width="255" height="179"><svg width="255" height="179" viewBox="0 0 255 179" fill="none" xmlns="http://www.w3.org/2000/svg">
<g clip-path="url(#clip0_90_2)">
<mask id="SvgjsMask1023" style="mask-type:luminance" maskUnits="userSpaceOnUse" x="0" y="0" width="255" height="179">
<path d="M255 0H0V179H255V0Z" fill="white"></path>
</mask>
<g mask="url(#mask0_90_2)">
<path fill-rule="evenodd" clip-rule="evenodd" d="M185.515 6.918C193.16 2.668 198.679 0.363 202.074 0C196.617 16.742 194.914 33.016 196.98 48.789C202.074 83.98 194.25 113.84 173.5 138.359C161.726 152.074 149.777 162.934 137.64 170.949C154.269 153.715 165.429 136.363 171.14 118.879C177.57 99.098 177.508 78.461 170.961 56.98C174 93.633 162.59 126.879 136.742 156.742C139.168 146.426 139.109 134.102 136.562 119.785C130.254 85.684 135.23 57.098 151.488 34.035C158.511 24.09 169.863 15.055 185.515 6.918ZM65.7457 53.16C72.0507 65.668 84.3667 79.559 102.691 94.855C121.867 110.758 130.902 128.473 129.808 148.016C129.566 150.32 128.961 153.172 127.992 156.574C127.387 158.277 126.414 161.004 125.082 164.77C126.051 152.023 123.199 140.5 116.523 130.184C111.183 121.691 102.746 113.441 91.2217 105.426C92.4287 107.25 96.1947 112.156 102.504 120.172C107.117 125.996 110.39 131.152 112.332 135.645C117.429 147.66 119.254 160.523 117.793 174.238C114.027 165.629 107.359 157.859 97.7687 150.941C92.3077 147.055 84.0577 141.414 73.0107 134.004C51.2927 115.555 45.8357 93.777 56.6327 68.648C59.3077 61.965 62.3437 56.797 65.7457 53.16Z" fill="#0AB007"></path>
<path d="M23.34 178.074H231.058C243.898 178.074 254.34 167.633 254.34 154.793C254.34 141.953 243.898 131.516 231.058 131.516H23.34C10.437 131.516 0 141.953 0 154.793C0 167.633 10.437 178.074 23.34 178.074Z" fill="#F7FBE9"></path>
<path d="M92.4513 149H96V149.899L89.4749 164H85.5261L79 149.899V149H82.5497L87.4966 160.42L92.4513 149Z" fill="black"></path>
<path d="M100 149H104V164H100V149Z" fill="black"></path>
<path d="M112.052 149L119.945 158.625V149H124V164H119.945L112.052 154.375V164H108V149H112.052Z" fill="black"></path>
<path d="M138.044 164H133.932V152.581H128V149H144V152.581H138.044V164Z" fill="black"></path>
<path d="M162 149V152.581H151.925V154.818H159.813V158.398H151.925V160.42H162V164H148V149H162Z" fill="black"></path>
<path d="M166 149H169.802V154.818H177.199V149H181V164H177.199V158.398H169.802V164H166V149Z" fill="black"></path>
<path d="M156 178.031H97.8318C97.4098 178.031 97.1328 177.605 97.1328 176.965C97.1328 176.328 97.4098 175.898 97.8318 175.898H155.933C156.351 175.898 156.629 176.328 156.629 176.965C156.629 177.605 156.351 178.031 156 178.031Z" fill="#0AB007"></path>
</g>
</g>
<defs>
<clipPath id="SvgjsClipPath1022">
<rect width="255" height="179" fill="white"></rect>
</clipPath>
</defs>
</svg><style>@media (prefers-color-scheme: light) { :root { filter: none; } }
@media (prefers-color-scheme: dark) { :root { filter: none; } }
</style></svg>